<?xml version="1.0" encoding="utf-8" standalone="no"?>
<!DOCTYPE svg PUBLIC "-//W3C//DTD SVG 1.1//EN"
  "http://www.w3.org/Graphics/SVG/1.1/DTD/svg11.dtd">
<svg xmlns:xlink="http://www.w3.org/1999/xlink" width="233.105487pt" height="199.671781pt" viewBox="0 0 233.105487 199.671781" xmlns="http://www.w3.org/2000/svg" version="1.1">
 <metadata>
  <rdf:RDF xmlns:dc="http://purl.org/dc/elements/1.1/" xmlns:cc="http://creativecommons.org/ns#" xmlns:rdf="http://www.w3.org/1999/02/22-rdf-syntax-ns#">
   <cc:Work>
    <dc:type rdf:resource="http://purl.org/dc/dcmitype/StillImage"/>
    <dc:date>2026-07-07T14:44:09.695012</dc:date>
    <dc:format>image/svg+xml</dc:format>
    <dc:creator>
     <cc:Agent>
      <dc:title>Matplotlib v3.10.9, https://matplotlib.org/</dc:title>
     </cc:Agent>
    </dc:creator>
   </cc:Work>
  </rdf:RDF>
 </metadata>
 <defs>
  <style type="text/css">*{stroke-linejoin: round; stroke-linecap: butt}</style>
 </defs>
 <g id="figure_1">
  <g id="patch_1">
   <path d="M 0 199.671781 
L 233.105487 199.671781 
L 233.105487 0 
L 0 0 
z
" style="fill: #ffffff"/>
  </g>
  <g id="axes_1">
   <g id="patch_2">
    <path d="M 37.074688 166.954594 
L 224.004688 166.954594 
L 224.004688 20.038594 
L 37.074688 20.038594 
z
" style="fill: #ffffff"/>
   </g>
   <g id="matplotlib.axis_1">
    <g id="xtick_1">
     <g id="line2d_1">
      <path d="M 37.074688 166.954594 
L 37.074688 20.038594 
" clip-path="url(#p395227c0e1)" style="fill: none; stroke: #e6e6e6; stroke-width: 0.8; stroke-linecap: square"/>
     </g>
     <g id="line2d_2">
      <defs>
       <path id="md082734a58" d="M 0 0 
L 0 3.5 
" style="stroke: #000000; stroke-width: 0.8"/>
      </defs>
      <g>
       <use xlink:href="#md082734a58" x="37.074688" y="166.954594" style="stroke: #000000; stroke-width: 0.8"/>
      </g>
     </g>
     <g id="text_1">
      <text style="font-size: 7px; font-family: 'DejaVu Sans', 'Bitstream Vera Sans', 'Computer Modern Sans Serif', 'Lucida Grande', 'Verdana', 'Geneva', 'Lucid', 'Arial', 'Helvetica', 'Avant Garde', sans-serif; text-anchor: middle" x="37.074688" y="179.2735" transform="rotate(-0 37.074688 179.2735)">0.0</text>
     </g>
    </g>
    <g id="xtick_2">
     <g id="line2d_3">
      <path d="M 73.727629 166.954594 
L 73.727629 20.038594 
" clip-path="url(#p395227c0e1)" style="fill: none; stroke: #e6e6e6; stroke-width: 0.8; stroke-linecap: square"/>
     </g>
     <g id="line2d_4">
      <g>
       <use xlink:href="#md082734a58" x="73.727629" y="166.954594" style="stroke: #000000; stroke-width: 0.8"/>
      </g>
     </g>
     <g id="text_2">
      <text style="font-size: 7px; font-family: 'DejaVu Sans', 'Bitstream Vera Sans', 'Computer Modern Sans Serif', 'Lucida Grande', 'Verdana', 'Geneva', 'Lucid', 'Arial', 'Helvetica', 'Avant Garde', sans-serif; text-anchor: middle" x="73.727629" y="179.2735" transform="rotate(-0 73.727629 179.2735)">0.2</text>
     </g>
    </g>
    <g id="xtick_3">
     <g id="line2d_5">
      <path d="M 110.38057 166.954594 
L 110.38057 20.038594 
" clip-path="url(#p395227c0e1)" style="fill: none; stroke: #e6e6e6; stroke-width: 0.8; stroke-linecap: square"/>
     </g>
     <g id="line2d_6">
      <g>
       <use xlink:href="#md082734a58" x="110.38057" y="166.954594" style="stroke: #000000; stroke-width: 0.8"/>
      </g>
     </g>
     <g id="text_3">
      <text style="font-size: 7px; font-family: 'DejaVu Sans', 'Bitstream Vera Sans', 'Computer Modern Sans Serif', 'Lucida Grande', 'Verdana', 'Geneva', 'Lucid', 'Arial', 'Helvetica', 'Avant Garde', sans-serif; text-anchor: middle" x="110.38057" y="179.2735" transform="rotate(-0 110.38057 179.2735)">0.4</text>
     </g>
    </g>
    <g id="xtick_4">
     <g id="line2d_7">
      <path d="M 147.033511 166.954594 
L 147.033511 20.038594 
" clip-path="url(#p395227c0e1)" style="fill: none; stroke: #e6e6e6; stroke-width: 0.8; stroke-linecap: square"/>
     </g>
     <g id="line2d_8">
      <g>
       <use xlink:href="#md082734a58" x="147.033511" y="166.954594" style="stroke: #000000; stroke-width: 0.8"/>
      </g>
     </g>
     <g id="text_4">
      <text style="font-size: 7px; font-family: 'DejaVu Sans', 'Bitstream Vera Sans', 'Computer Modern Sans Serif', 'Lucida Grande', 'Verdana', 'Geneva', 'Lucid', 'Arial', 'Helvetica', 'Avant Garde', sans-serif; text-anchor: middle" x="147.033511" y="179.2735" transform="rotate(-0 147.033511 179.2735)">0.6</text>
     </g>
    </g>
    <g id="xtick_5">
     <g id="line2d_9">
      <path d="M 183.686452 166.954594 
L 183.686452 20.038594 
" clip-path="url(#p395227c0e1)" style="fill: none; stroke: #e6e6e6; stroke-width: 0.8; stroke-linecap: square"/>
     </g>
     <g id="line2d_10">
      <g>
       <use xlink:href="#md082734a58" x="183.686452" y="166.954594" style="stroke: #000000; stroke-width: 0.8"/>
      </g>
     </g>
     <g id="text_5">
      <text style="font-size: 7px; font-family: 'DejaVu Sans', 'Bitstream Vera Sans', 'Computer Modern Sans Serif', 'Lucida Grande', 'Verdana', 'Geneva', 'Lucid', 'Arial', 'Helvetica', 'Avant Garde', sans-serif; text-anchor: middle" x="183.686452" y="179.2735" transform="rotate(-0 183.686452 179.2735)">0.8</text>
     </g>
    </g>
    <g id="xtick_6">
     <g id="line2d_11">
      <path d="M 220.339393 166.954594 
L 220.339393 20.038594 
" clip-path="url(#p395227c0e1)" style="fill: none; stroke: #e6e6e6; stroke-width: 0.8; stroke-linecap: square"/>
     </g>
     <g id="line2d_12">
      <g>
       <use xlink:href="#md082734a58" x="220.339393" y="166.954594" style="stroke: #000000; stroke-width: 0.8"/>
      </g>
     </g>
     <g id="text_6">
      <text style="font-size: 7px; font-family: 'DejaVu Sans', 'Bitstream Vera Sans', 'Computer Modern Sans Serif', 'Lucida Grande', 'Verdana', 'Geneva', 'Lucid', 'Arial', 'Helvetica', 'Avant Garde', sans-serif; text-anchor: middle" x="220.339393" y="179.2735" transform="rotate(-0 220.339393 179.2735)">1.0</text>
     </g>
    </g>
    <g id="text_7">
     <text style="font-size: 8px; font-family: 'DejaVu Sans', 'Bitstream Vera Sans', 'Computer Modern Sans Serif', 'Lucida Grande', 'Verdana', 'Geneva', 'Lucid', 'Arial', 'Helvetica', 'Avant Garde', sans-serif; text-anchor: middle" x="130.539688" y="190.808031" transform="rotate(-0 130.539688 190.808031)">Recall</text>
    </g>
   </g>
   <g id="matplotlib.axis_2">
    <g id="ytick_1">
     <g id="line2d_13">
      <path d="M 37.074688 166.954594 
L 224.004688 166.954594 
" clip-path="url(#p395227c0e1)" style="fill: none; stroke: #e6e6e6; stroke-width: 0.8; stroke-linecap: square"/>
     </g>
     <g id="line2d_14">
      <defs>
       <path id="m0b9b93817a" d="M 0 0 
L -3.5 0 
" style="stroke: #000000; stroke-width: 0.8"/>
      </defs>
      <g>
       <use xlink:href="#m0b9b93817a" x="37.074688" y="166.954594" style="stroke: #000000; stroke-width: 0.8"/>
      </g>
     </g>
     <g id="text_8">
      <text style="font-size: 7px; font-family: 'DejaVu Sans', 'Bitstream Vera Sans', 'Computer Modern Sans Serif', 'Lucida Grande', 'Verdana', 'Geneva', 'Lucid', 'Arial', 'Helvetica', 'Avant Garde', sans-serif; text-anchor: end" x="30.074688" y="169.614047" transform="rotate(-0 30.074688 169.614047)">0.0</text>
     </g>
    </g>
    <g id="ytick_2">
     <g id="line2d_15">
      <path d="M 37.074688 138.147535 
L 224.004688 138.147535 
" clip-path="url(#p395227c0e1)" style="fill: none; stroke: #e6e6e6; stroke-width: 0.8; stroke-linecap: square"/>
     </g>
     <g id="line2d_16">
      <g>
       <use xlink:href="#m0b9b93817a" x="37.074688" y="138.147535" style="stroke: #000000; stroke-width: 0.8"/>
      </g>
     </g>
     <g id="text_9">
      <text style="font-size: 7px; font-family: 'DejaVu Sans', 'Bitstream Vera Sans', 'Computer Modern Sans Serif', 'Lucida Grande', 'Verdana', 'Geneva', 'Lucid', 'Arial', 'Helvetica', 'Avant Garde', sans-serif; text-anchor: end" x="30.074688" y="140.806988" transform="rotate(-0 30.074688 140.806988)">0.2</text>
     </g>
    </g>
    <g id="ytick_3">
     <g id="line2d_17">
      <path d="M 37.074688 109.340476 
L 224.004688 109.340476 
" clip-path="url(#p395227c0e1)" style="fill: none; stroke: #e6e6e6; stroke-width: 0.8; stroke-linecap: square"/>
     </g>
     <g id="line2d_18">
      <g>
       <use xlink:href="#m0b9b93817a" x="37.074688" y="109.340476" style="stroke: #000000; stroke-width: 0.8"/>
      </g>
     </g>
     <g id="text_10">
      <text style="font-size: 7px; font-family: 'DejaVu Sans', 'Bitstream Vera Sans', 'Computer Modern Sans Serif', 'Lucida Grande', 'Verdana', 'Geneva', 'Lucid', 'Arial', 'Helvetica', 'Avant Garde', sans-serif; text-anchor: end" x="30.074688" y="111.999929" transform="rotate(-0 30.074688 111.999929)">0.4</text>
     </g>
    </g>
    <g id="ytick_4">
     <g id="line2d_19">
      <path d="M 37.074688 80.533417 
L 224.004688 80.533417 
" clip-path="url(#p395227c0e1)" style="fill: none; stroke: #e6e6e6; stroke-width: 0.8; stroke-linecap: square"/>
     </g>
     <g id="line2d_20">
      <g>
       <use xlink:href="#m0b9b93817a" x="37.074688" y="80.533417" style="stroke: #000000; stroke-width: 0.8"/>
      </g>
     </g>
     <g id="text_11">
      <text style="font-size: 7px; font-family: 'DejaVu Sans', 'Bitstream Vera Sans', 'Computer Modern Sans Serif', 'Lucida Grande', 'Verdana', 'Geneva', 'Lucid', 'Arial', 'Helvetica', 'Avant Garde', sans-serif; text-anchor: end" x="30.074688" y="83.19287" transform="rotate(-0 30.074688 83.19287)">0.6</text>
     </g>
    </g>
    <g id="ytick_5">
     <g id="line2d_21">
      <path d="M 37.074688 51.726358 
L 224.004688 51.726358 
" clip-path="url(#p395227c0e1)" style="fill: none; stroke: #e6e6e6; stroke-width: 0.8; stroke-linecap: square"/>
     </g>
     <g id="line2d_22">
      <g>
       <use xlink:href="#m0b9b93817a" x="37.074688" y="51.726358" style="stroke: #000000; stroke-width: 0.8"/>
      </g>
     </g>
     <g id="text_12">
      <text style="font-size: 7px; font-family: 'DejaVu Sans', 'Bitstream Vera Sans', 'Computer Modern Sans Serif', 'Lucida Grande', 'Verdana', 'Geneva', 'Lucid', 'Arial', 'Helvetica', 'Avant Garde', sans-serif; text-anchor: end" x="30.074688" y="54.385812" transform="rotate(-0 30.074688 54.385812)">0.8</text>
     </g>
    </g>
    <g id="ytick_6">
     <g id="line2d_23">
      <path d="M 37.074688 22.9193 
L 224.004688 22.9193 
" clip-path="url(#p395227c0e1)" style="fill: none; stroke: #e6e6e6; stroke-width: 0.8; stroke-linecap: square"/>
     </g>
     <g id="line2d_24">
      <g>
       <use xlink:href="#m0b9b93817a" x="37.074688" y="22.9193" style="stroke: #000000; stroke-width: 0.8"/>
      </g>
     </g>
     <g id="text_13">
      <text style="font-size: 7px; font-family: 'DejaVu Sans', 'Bitstream Vera Sans', 'Computer Modern Sans Serif', 'Lucida Grande', 'Verdana', 'Geneva', 'Lucid', 'Arial', 'Helvetica', 'Avant Garde', sans-serif; text-anchor: end" x="30.074688" y="25.578753" transform="rotate(-0 30.074688 25.578753)">1.0</text>
     </g>
    </g>
    <g id="text_14">
     <text style="font-size: 8px; font-family: 'DejaVu Sans', 'Bitstream Vera Sans', 'Computer Modern Sans Serif', 'Lucida Grande', 'Verdana', 'Geneva', 'Lucid', 'Arial', 'Helvetica', 'Avant Garde', sans-serif; text-anchor: middle" x="13.27875" y="93.496594" transform="rotate(-90 13.27875 93.496594)">Precision</text>
    </g>
   </g>
   <g id="line2d_25">
    <path d="M 37.074688 22.9193 
L 45.404901 22.9193 
L 45.404901 22.9193 
L 53.735115 22.9193 
L 53.735115 22.9193 
L 62.065329 22.9193 
L 62.065329 22.9193 
L 70.395543 22.9193 
L 70.395543 22.9193 
L 78.725757 22.9193 
L 78.725757 22.9193 
L 87.055971 22.9193 
L 87.055971 22.9193 
L 95.386185 22.9193 
L 95.386185 22.9193 
L 103.716399 22.9193 
L 103.716399 22.9193 
L 112.046613 22.9193 
L 112.046613 22.9193 
L 120.376827 22.9193 
L 120.376827 22.9193 
L 128.70704 22.9193 
L 128.70704 22.9193 
L 137.037254 22.9193 
L 137.037254 22.9193 
L 145.367468 22.9193 
L 145.367468 22.9193 
L 153.697682 22.9193 
L 153.697682 22.9193 
L 162.027896 22.9193 
L 162.027896 22.9193 
L 170.35811 22.9193 
L 170.35811 22.9193 
L 178.688324 22.9193 
L 178.688324 22.9193 
L 187.018538 22.9193 
L 187.018538 22.9193 
L 195.348752 22.9193 
L 195.348752 22.9193 
L 203.678966 22.9193 
L 203.678966 40.923711 
L 212.009179 40.923711 
L 212.009179 40.923711 
L 220.339393 40.923711 
L 220.339393 93.262118 
" clip-path="url(#p395227c0e1)" style="fill: none; stroke: #1f77b4; stroke-width: 1.8; stroke-linecap: square"/>
   </g>
   <g id="line2d_26">
    <path d="M 37.074688 22.9193 
L 45.404901 22.9193 
L 45.404901 22.9193 
L 53.735115 22.9193 
L 53.735115 22.9193 
L 62.065329 22.9193 
L 62.065329 22.9193 
L 70.395543 22.9193 
L 70.395543 22.9193 
L 78.725757 22.9193 
L 78.725757 22.9193 
L 87.055971 22.9193 
L 87.055971 22.9193 
L 95.386185 22.9193 
L 95.386185 22.9193 
L 103.716399 22.9193 
L 103.716399 22.9193 
L 112.046613 22.9193 
L 112.046613 22.9193 
L 120.376827 22.9193 
L 120.376827 22.9193 
L 128.70704 22.9193 
L 128.70704 22.9193 
L 137.037254 22.9193 
L 137.037254 22.9193 
L 145.367468 22.9193 
L 145.367468 22.9193 
L 153.697682 22.9193 
L 153.697682 22.9193 
L 162.027896 22.9193 
L 162.027896 22.9193 
L 170.35811 22.9193 
L 170.35811 22.9193 
L 178.688324 22.9193 
L 178.688324 22.9193 
L 187.018538 22.9193 
L 187.018538 30.121064 
L 195.348752 30.121064 
L 195.348752 30.121064 
L 203.678966 30.121064 
L 203.678966 41.706512 
L 212.009179 41.706512 
L 212.009179 73.755286 
L 220.339393 73.755286 
L 220.339393 73.755286 
" clip-path="url(#p395227c0e1)" style="fill: none; stroke: #ff7f0e; stroke-width: 1.8; stroke-linecap: square"/>
   </g>
   <g id="line2d_27">
    <path d="M 37.074688 22.9193 
L 45.404901 22.9193 
L 45.404901 22.9193 
L 53.735115 22.9193 
L 53.735115 22.9193 
L 62.065329 22.9193 
L 62.065329 22.9193 
L 70.395543 22.9193 
L 70.395543 22.9193 
L 78.725757 22.9193 
L 78.725757 22.9193 
L 87.055971 22.9193 
L 87.055971 22.9193 
L 95.386185 22.9193 
L 95.386185 22.9193 
L 103.716399 22.9193 
L 103.716399 22.9193 
L 112.046613 22.9193 
L 112.046613 22.9193 
L 120.376827 22.9193 
L 120.376827 22.9193 
L 128.70704 22.9193 
L 128.70704 22.9193 
L 137.037254 22.9193 
L 137.037254 22.9193 
L 145.367468 22.9193 
L 145.367468 22.9193 
L 153.697682 22.9193 
L 153.697682 22.9193 
L 162.027896 22.9193 
L 162.027896 22.9193 
L 170.35811 22.9193 
L 170.35811 22.9193 
L 178.688324 22.9193 
L 178.688324 22.9193 
L 187.018538 22.9193 
L 187.018538 22.9193 
L 195.348752 22.9193 
L 195.348752 30.121064 
L 203.678966 30.121064 
L 203.678966 60.261783 
L 212.009179 60.261783 
L 212.009179 141.536601 
L 220.339393 141.536601 
L 220.339393 144.157641 
" clip-path="url(#p395227c0e1)" style="fill: none; stroke: #2ca02c; stroke-width: 1.8; stroke-linecap: square"/>
   </g>
   <g id="line2d_28">
    <path d="M 37.074688 22.9193 
L 45.404901 22.9193 
L 45.404901 22.9193 
L 53.735115 22.9193 
L 53.735115 22.9193 
L 62.065329 22.9193 
L 62.065329 22.9193 
L 70.395543 22.9193 
L 70.395543 22.9193 
L 78.725757 22.9193 
L 78.725757 22.9193 
L 87.055971 22.9193 
L 87.055971 22.9193 
L 95.386185 22.9193 
L 95.386185 22.9193 
L 103.716399 22.9193 
L 103.716399 22.9193 
L 112.046613 22.9193 
L 112.046613 22.9193 
L 120.376827 22.9193 
L 120.376827 22.9193 
L 128.70704 22.9193 
L 128.70704 22.9193 
L 137.037254 22.9193 
L 137.037254 22.9193 
L 145.367468 22.9193 
L 145.367468 22.9193 
L 153.697682 22.9193 
L 153.697682 22.9193 
L 162.027896 22.9193 
L 162.027896 22.9193 
L 170.35811 22.9193 
L 170.35811 22.9193 
L 178.688324 22.9193 
L 178.688324 22.9193 
L 187.018538 22.9193 
L 187.018538 30.500105 
L 195.348752 30.500105 
L 195.348752 46.925182 
L 203.678966 46.925182 
L 203.678966 46.925182 
L 212.009179 46.925182 
L 212.009179 143.323803 
L 220.339393 143.323803 
L 220.339393 146.510875 
" clip-path="url(#p395227c0e1)" style="fill: none; stroke: #d62728; stroke-width: 1.8; stroke-linecap: square"/>
   </g>
   <g id="patch_3">
    <path d="M 37.074688 166.954594 
L 37.074688 20.038594 
" style="fill: none; stroke: #000000; stroke-width: 0.8; stroke-linejoin: miter; stroke-linecap: square"/>
   </g>
   <g id="patch_4">
    <path d="M 37.074688 166.954594 
L 224.004687 166.954594 
" style="fill: none; stroke: #000000; stroke-width: 0.8; stroke-linejoin: miter; stroke-linecap: square"/>
   </g>
   <g id="text_15">
    <text style="font-size: 9px; font-family: 'DejaVu Sans', 'Bitstream Vera Sans', 'Computer Modern Sans Serif', 'Lucida Grande', 'Verdana', 'Geneva', 'Lucid', 'Arial', 'Helvetica', 'Avant Garde', sans-serif; text-anchor: middle" x="130.539688" y="14.038594" transform="rotate(-0 130.539688 14.038594)">Broach dataset CNN-AE PR curves</text>
   </g>
   <g id="legend_1">
    <g id="line2d_29">
     <path d="M 43.374688 125.92475 
L 50.374688 125.92475 
L 50.374688 125.92475 
L 57.374688 125.92475 
L 57.374688 125.92475 
" style="fill: none; stroke: #1f77b4; stroke-width: 1.8; stroke-linecap: square"/>
    </g>
    <g id="text_16">
     <text style="font-size: 7px; font-family: 'DejaVu Sans', 'Bitstream Vera Sans', 'Computer Modern Sans Serif', 'Lucida Grande', 'Verdana', 'Geneva', 'Lucid', 'Arial', 'Helvetica', 'Avant Garde', sans-serif; text-anchor: start" x="62.974688" y="128.37475" transform="rotate(-0 62.974688 128.37475)">VER max (0.966)</text>
    </g>
    <g id="line2d_30">
     <path d="M 43.374688 136.199437 
L 50.374688 136.199437 
L 50.374688 136.199437 
L 57.374688 136.199437 
L 57.374688 136.199437 
" style="fill: none; stroke: #ff7f0e; stroke-width: 1.8; stroke-linecap: square"/>
    </g>
    <g id="text_17">
     <text style="font-size: 7px; font-family: 'DejaVu Sans', 'Bitstream Vera Sans', 'Computer Modern Sans Serif', 'Lucida Grande', 'Verdana', 'Geneva', 'Lucid', 'Arial', 'Helvetica', 'Avant Garde', sans-serif; text-anchor: start" x="62.974688" y="138.649437" transform="rotate(-0 62.974688 138.649437)">MaxPool MSE 101x101 (0.957)</text>
    </g>
    <g id="line2d_31">
     <path d="M 43.374688 146.474125 
L 50.374688 146.474125 
L 50.374688 146.474125 
L 57.374688 146.474125 
L 57.374688 146.474125 
" style="fill: none; stroke: #2ca02c; stroke-width: 1.8; stroke-linecap: square"/>
    </g>
    <g id="text_18">
     <text style="font-size: 7px; font-family: 'DejaVu Sans', 'Bitstream Vera Sans', 'Computer Modern Sans Serif', 'Lucida Grande', 'Verdana', 'Geneva', 'Lucid', 'Arial', 'Helvetica', 'Avant Garde', sans-serif; text-anchor: start" x="62.974688" y="148.924125" transform="rotate(-0 62.974688 148.924125)">MaxPool MSE 25x25 (0.910)</text>
    </g>
    <g id="line2d_32">
     <path d="M 43.374688 156.748812 
L 50.374688 156.748812 
L 50.374688 156.748812 
L 57.374688 156.748812 
L 57.374688 156.748812 
" style="fill: none; stroke: #d62728; stroke-width: 1.8; stroke-linecap: square"/>
    </g>
    <g id="text_19">
     <text style="font-size: 7px; font-family: 'DejaVu Sans', 'Bitstream Vera Sans', 'Computer Modern Sans Serif', 'Lucida Grande', 'Verdana', 'Geneva', 'Lucid', 'Arial', 'Helvetica', 'Avant Garde', sans-serif; text-anchor: start" x="62.974688" y="159.198812" transform="rotate(-0 62.974688 159.198812)">MaxPool MSE 15x15 (0.905)</text>
    </g>
   </g>
  </g>
 </g>
 <defs>
  <clipPath id="p395227c0e1">
   <rect x="37.074688" y="20.038594" width="186.93" height="146.916"/>
  </clipPath>
 </defs>
</svg>
